<svg width="21" height="25" viewBox="0 0 21 25" fill="none" xmlns="http://www.w3.org/2000/svg">
<path d="M20.2282 18.9904C19.8636 19.8289 19.432 20.6007 18.932 21.3103C18.2504 22.2777 17.6923 22.9473 17.2623 23.3192C16.5956 23.9295 15.8812 24.2421 15.1163 24.2599C14.5672 24.2599 13.9049 24.1043 13.1341 23.7888C12.3606 23.4747 11.6499 23.3192 11 23.3192C10.3184 23.3192 9.58743 23.4747 8.80554 23.7888C8.02246 24.1043 7.39162 24.2688 6.9093 24.2851C6.17577 24.3162 5.44463 23.9947 4.71483 23.3192C4.24903 22.9147 3.66641 22.2214 2.96845 21.2392C2.2196 20.1904 1.60394 18.9741 1.12162 17.5875C0.605074 16.0897 0.34613 14.6394 0.34613 13.2353C0.34613 11.6269 0.695257 10.2397 1.39455 9.07722C1.94414 8.14347 2.67528 7.4069 3.59036 6.86617C4.50544 6.32545 5.49419 6.0499 6.55898 6.03227C7.1416 6.03227 7.90563 6.21167 8.85509 6.56426C9.80187 6.91802 10.4098 7.09742 10.6763 7.09742C10.8756 7.09742 11.5509 6.88765 12.6958 6.46944C13.7784 6.0816 14.6922 5.92102 15.4407 5.98427C17.4691 6.14723 18.993 6.94321 20.0065 8.37724C18.1924 9.47143 17.295 11.004 17.3129 12.97C17.3292 14.5013 17.8873 15.7757 18.9841 16.7875C19.4811 17.2571 20.0362 17.6201 20.6538 17.8778C20.5199 18.2645 20.3785 18.6349 20.2282 18.9904ZM15.5762 0.767246C15.5762 1.96752 15.1357 3.08821 14.2576 4.12551C13.198 5.35866 11.9164 6.07123 10.5266 5.95879C10.5089 5.8148 10.4986 5.66325 10.4986 5.50399C10.4986 4.35173 11.0025 3.11858 11.8974 2.11032C12.3441 1.59981 12.9123 1.17534 13.6013 0.836725C14.2889 0.503164 14.9392 0.318698 15.5509 0.287109C15.5687 0.447567 15.5762 0.608035 15.5762 0.76723V0.767246Z" fill="white"/>
</svg>
