<svg width="25" height="25" viewBox="0 0 25 25" fill="none" xmlns="http://www.w3.org/2000/svg">
<g clip-path="url(#clip0_31_423)">
<path d="M16.9084 21.8697C16.9084 22.9294 17.7655 23.7865 18.8252 23.7865C19.8849 23.7865 20.742 22.9294 20.742 21.8697C20.742 20.81 19.8849 19.9529 18.8252 19.9529C17.7655 19.9529 16.9084 20.81 16.9084 21.8697Z" fill="#D7D7D7"/>
<path d="M8.60083 21.8697C8.60083 22.9294 9.45789 23.7865 10.5176 23.7865C11.5773 23.7865 12.4343 22.9294 12.4343 21.8697C12.4343 20.81 11.5773 19.9529 10.5176 19.9529C9.45789 19.9529 8.60083 20.81 8.60083 21.8697Z" fill="#D7D7D7"/>
<path d="M21.2267 18.8358H9.26338C8.19274 18.8358 7.28364 18.0691 7.10292 17.0148L4.67685 2.80072H1.3636C0.758453 2.80072 0.268311 2.31058 0.268311 1.70543C0.268311 1.10028 0.758453 0.610138 1.3636 0.610138H4.67685C5.7475 0.610138 6.65659 1.37684 6.83731 2.43106L9.26338 16.6452H21.2267C21.8318 16.6452 22.322 17.1353 22.322 17.7405C22.322 18.3456 21.8318 18.8358 21.2267 18.8358Z" fill="#D7D7D7"/>
<path d="M13.1927 14.2355C12.6204 14.2355 12.1385 13.7919 12.1001 13.2114C12.0618 12.609 12.5191 12.086 13.1215 12.0477L21.3882 11.5055L22.5875 5.36642H10.961C10.3559 5.36642 9.86572 4.87628 9.86572 4.27113C9.86572 3.66598 10.3559 3.17584 10.961 3.17584H22.5875C23.2447 3.17584 23.8608 3.46609 24.2797 3.97267C24.6987 4.47924 24.8657 5.14189 24.7398 5.78537L23.5404 11.9245C23.3515 12.8911 22.5328 13.6167 21.5497 13.6879H21.5415L13.2666 14.2301C13.242 14.2355 13.2173 14.2355 13.1927 14.2355Z" fill="#D7D7D7"/>
</g>
<defs>
<clipPath id="clip0_31_423">
<rect width="25" height="23.6583" fill="white" transform="translate(0 0.358215)"/>
</clipPath>
</defs>
</svg>
