<svg width="25" height="26" viewBox="0 0 25 26" fill="none" xmlns="http://www.w3.org/2000/svg">
<g clip-path="url(#clip0_19_470)">
<path d="M21.4966 5.78546H18.2837C18.501 5.32159 18.6279 4.80646 18.6279 4.25958C18.6279 2.28693 17.0239 0.682922 15.0513 0.682922C14.0527 0.682922 13.1494 1.09308 12.5 1.7547C11.8506 1.09308 10.9473 0.682922 9.94873 0.682922C7.97607 0.682922 6.37207 2.28693 6.37207 4.25958C6.37207 4.80646 6.49658 5.31915 6.71631 5.78546H3.50342C1.82617 5.78546 0.461426 7.14777 0.461426 8.82257V11.0833C0.461426 12.5042 1.44531 13.6981 2.76611 14.0301V20.9222C2.76611 23.1854 4.60938 25.0286 6.87256 25.0286H18.1299C20.3931 25.0286 22.2363 23.1854 22.2363 20.9222V14.0301C23.5571 13.6981 24.541 12.5042 24.541 11.0833V8.82257C24.5386 7.14777 23.1738 5.78546 21.4966 5.78546ZM15.0513 2.73859C15.8936 2.73859 16.5771 3.42218 16.5771 4.26447C16.5771 5.10675 15.8936 5.79034 15.0513 5.79034H13.5254V4.26202C13.5254 3.42218 14.209 2.73859 15.0513 2.73859ZM8.42529 4.26202C8.42529 3.42218 9.10889 2.73615 9.95117 2.73615C10.7935 2.73615 11.4771 3.42218 11.4771 4.26202V5.7879H9.95117C9.10889 5.78546 8.42529 5.10187 8.42529 4.26202ZM2.51221 8.82257C2.51221 8.27814 2.9541 7.83624 3.49854 7.83624H11.4746V12.0721H3.50342C2.95898 12.0721 2.51709 11.6302 2.51709 11.0858L2.51221 8.82257ZM4.81934 20.9246V14.1253H11.4746V22.9778H6.87012C5.73975 22.9778 4.81934 22.0599 4.81934 20.9246ZM20.1807 20.9246C20.1807 22.0574 19.2603 22.9778 18.1274 22.9778H13.5254V14.1253H20.1807V20.9246ZM22.4854 11.0882C22.4854 11.6326 22.0435 12.0745 21.499 12.0745H13.5254V7.83868H21.499C22.0435 7.83868 22.4854 8.28058 22.4854 8.82501V11.0882Z" fill="#D7D7D7"/>
<path d="M13.0493 8.99103L13.9892 10.8953C14.0796 11.076 14.2505 11.2029 14.4507 11.2298L16.5527 11.535C17.0557 11.6082 17.2558 12.2259 16.8921 12.5823L15.3711 14.0643C15.227 14.2059 15.1611 14.4085 15.1953 14.6063L15.5542 16.701C15.6396 17.2015 15.1147 17.5848 14.6631 17.348L12.7832 16.3592C12.605 16.2664 12.3901 16.2664 12.2119 16.3592L10.332 17.348C9.8828 17.5848 9.35546 17.2015 9.44091 16.701L9.79979 14.6063C9.83397 14.4061 9.76806 14.2034 9.62401 14.0643L8.10546 12.5823C7.74169 12.2283 7.94188 11.6082 8.44481 11.535L10.5469 11.2298C10.7471 11.2005 10.9204 11.076 11.0083 10.8953L11.9482 8.99103C12.1753 8.53448 12.8247 8.53448 13.0493 8.99103Z" fill="#A9A9A9"/>
</g>
<defs>
<clipPath id="clip0_19_470">
<rect width="25" height="25" fill="white" transform="translate(0 0.358215)"/>
</clipPath>
</defs>
</svg>
