<svg width="25" height="25" viewBox="0 0 25 25" fill="none" xmlns="http://www.w3.org/2000/svg">
<g clip-path="url(#clip0_39_4352)">
<path fill-rule="evenodd" clip-rule="evenodd" d="M24.02 12.5598C24.02 11.7089 23.9436 10.8907 23.8018 10.1052H12.5V14.747H18.9582C18.68 16.247 17.8345 17.518 16.5636 18.3689V21.3798H20.4418C22.7109 19.2907 24.02 16.2143 24.02 12.5598Z" fill="#4285F4"/>
<path fill-rule="evenodd" clip-rule="evenodd" d="M12.5 24.2871C15.74 24.2871 18.4564 23.2126 20.4418 21.3799L16.5636 18.369C15.4891 19.089 14.1145 19.5144 12.5 19.5144C9.37455 19.5144 6.72909 17.4035 5.78546 14.5671H1.77637V17.6762C3.75091 21.598 7.80909 24.2871 12.5 24.2871Z" fill="#34A853"/>
<path fill-rule="evenodd" clip-rule="evenodd" d="M5.78545 14.567C5.54545 13.847 5.40909 13.0779 5.40909 12.287C5.40909 11.4961 5.54545 10.727 5.78545 10.007V6.89795H1.77636C0.963636 8.51795 0.5 10.3507 0.5 12.287C0.5 14.2234 0.963636 16.0561 1.77636 17.6761L5.78545 14.567Z" fill="#FBBC05"/>
<path fill-rule="evenodd" clip-rule="evenodd" d="M12.5 5.05984C14.2618 5.05984 15.8436 5.66529 17.0873 6.85438L20.5291 3.41256C18.4509 1.4762 15.7345 0.287109 12.5 0.287109C7.80909 0.287109 3.75091 2.9762 1.77637 6.89802L5.78546 10.0071C6.72909 7.17075 9.37455 5.05984 12.5 5.05984Z" fill="#EA4335"/>
</g>
<defs>
<clipPath id="clip0_39_4352">
<rect x="0.5" y="0.287109" width="24" height="24" rx="6" fill="white"/>
</clipPath>
</defs>
</svg>
