<svg width="25" height="24" viewBox="0 0 25 24" fill="none" xmlns="http://www.w3.org/2000/svg">
<g clip-path="url(#clip0_19_469)">
<path d="M24.8731 12.3426C24.8731 12.9793 24.3653 13.4975 23.739 13.4975C23.3996 13.4975 23.096 13.3432 22.8891 13.1006L13.3306 3.3819C12.8863 2.92986 12.1689 2.92986 11.7246 3.3819L4.96137 10.2589C5.04139 10.4132 5.09106 10.5869 5.09106 10.7743V15.336C5.09106 15.3443 5.0883 15.3525 5.0883 15.3635H5.09658V19.8563C5.09658 20.493 5.60706 21.0112 6.2362 21.0112H8.51545V16.4743C8.51545 15.8431 9.02594 15.3332 9.65783 15.3332H15.3642C15.9934 15.3332 16.5066 15.8431 16.5066 16.4743C16.5066 17.1028 15.9961 17.6154 15.3642 17.6154H10.7975V22.1771C10.7975 22.7945 10.3035 23.2962 9.69095 23.3127V23.3155H5.66225C4.08664 23.3155 2.80905 22.0228 2.80905 20.4296V15.3608H2.81181C2.81181 15.3525 2.80905 15.3443 2.80905 15.3332V12.4474L2.16887 13.0979C1.96192 13.3377 1.65839 13.4948 1.31898 13.4948C0.692602 13.4948 0.184875 12.9793 0.184875 12.3399C0.184875 12.0119 0.320085 11.7197 0.535317 11.5102L0.529798 11.5047L10.5215 1.34223C11.6308 0.214903 13.4271 0.214903 14.5364 1.34223L24.5143 11.4854L24.5033 11.4937C24.7296 11.7059 24.8731 12.0064 24.8731 12.3426ZM15.3615 21.0085C15.3725 21.0085 15.3863 21.0112 15.3973 21.0112V21.0085H18.7831C19.4122 21.0085 19.9227 20.493 19.9227 19.8536V15.3608H19.9365C19.9365 15.347 19.9338 15.3332 19.9338 15.3194C19.9338 14.6827 20.4415 14.1646 21.0679 14.1646C21.6943 14.1646 22.202 14.68 22.202 15.3194C22.202 15.3332 22.1992 15.347 22.1992 15.3608H22.2103V20.4296C22.2103 22.0228 20.9327 23.3155 19.3571 23.3155H15.3973V23.3127C15.3863 23.3127 15.3725 23.3155 15.3615 23.3155C14.7351 23.3155 14.2274 22.8001 14.2274 22.1606C14.2274 21.5266 14.7351 21.0085 15.3615 21.0085Z" fill="#586EDB"/>
</g>
<defs>
<clipPath id="clip0_19_469">
<rect width="25" height="23.0978" fill="white" transform="translate(0 0.358215)"/>
</clipPath>
</defs>
</svg>
