<svg width="25" height="25" viewBox="0 0 25 25" fill="none" xmlns="http://www.w3.org/2000/svg">
<g clip-path="url(#clip0_19_464)">
<path d="M15.2977 22.068C15.2977 23.6196 14.0385 24.8762 12.4869 24.8762C10.9352 24.8762 9.67865 23.6196 9.67865 22.068H1.24873C0.281918 22.068 -0.234415 20.9299 0.403098 20.2028L3.22449 16.9758C3.65916 16.4805 4.05694 15.4162 4.05694 14.7576V8.58007C4.05694 3.92517 7.83197 0.150146 12.4869 0.150146C17.1418 0.150146 20.9168 3.92517 20.9168 8.58007V14.7603C20.9168 15.4215 21.3146 16.4805 21.7493 16.9784L24.5706 20.2055C25.2055 20.9325 24.6892 22.0706 23.725 22.0706H15.2977V22.068ZM20.058 18.4563C19.2651 17.55 18.6671 15.9642 18.6671 14.7576V8.58007C18.6697 5.16595 15.901 2.39725 12.4869 2.39725C9.07275 2.39725 6.30405 5.16595 6.30405 8.58007V14.7603C6.30405 15.9642 5.70605 17.5527 4.91311 18.4589L3.72238 19.8209H21.2487L20.058 18.4563Z" fill="#D7D7D7"/>
</g>
<defs>
<clipPath id="clip0_19_464">
<rect width="25" height="25" fill="white"/>
</clipPath>
</defs>
</svg>
