<svg width="30" height="30" viewBox="0 0 30 30" fill="none" xmlns="http://www.w3.org/2000/svg">
<g clip-path="url(#clip0_19_468)">
<path d="M28.2793 16.5027L18.2992 6.5227C17.657 5.88048 16.615 5.87977 15.9736 6.5211L15.5468 6.94791C15.4731 7.02165 15.3568 7.02157 15.2829 6.94773C15.2091 6.87389 15.209 6.75761 15.2828 6.68387L15.7096 6.25705C16.3509 5.61572 16.3502 4.57368 15.708 3.93146L13.2063 1.42974C12.564 0.787523 11.522 0.786808 10.8807 1.42814L1.46624 10.8426C0.824909 11.4839 0.825624 12.5259 1.46784 13.1682L3.96956 15.6699C4.61178 16.3121 5.65382 16.3128 6.29516 15.6715L6.65716 15.3095C6.73091 15.2357 6.84718 15.2358 6.92103 15.3097C6.99487 15.3835 6.99495 15.4998 6.92121 15.5735L6.5592 15.9355C5.91787 16.5769 5.91858 17.6189 6.5608 18.2611L16.5408 28.2412C17.1831 28.8834 18.2251 28.8841 18.8664 28.2428L28.2809 18.8283C28.9222 18.187 28.9215 17.145 28.2793 16.5027ZM17.705 26.898L7.90392 17.097L8.17654 16.8244C8.93855 16.0624 8.93769 14.8191 8.17465 14.056C7.4116 13.293 6.1683 13.2921 5.4063 14.0541L5.13367 14.3268L2.81096 12.004L12.0444 2.77063L14.3671 5.09334L14.0297 5.43077C13.2677 6.19277 13.2685 7.43607 14.0316 8.19911C14.7946 8.96216 16.0379 8.96302 16.7999 8.20101L17.1373 7.86359L26.9384 17.6646L17.705 26.898Z" fill="#D7D7D7"/>
<path d="M14.6429 12.8149L20.7854 18.9574C21.1322 19.3042 21.6913 19.3046 22.0376 18.9582C22.384 18.6119 22.3836 18.0528 22.0368 17.706L15.8943 11.5635C15.5475 11.2167 14.9884 11.2163 14.6421 11.5627C14.2957 11.9091 14.2983 12.4703 14.6429 12.8149ZM11.6039 15.854L17.7463 21.9964C18.0931 22.3433 18.6522 22.3437 18.9985 21.9973C19.3449 21.6509 19.3445 21.0919 18.9977 20.7451L12.8553 14.6026C12.5084 14.2558 11.9494 14.2554 11.603 14.6018C11.2566 14.9481 11.2593 15.5094 11.6039 15.854ZM12.5424 5.186C12.1956 4.83916 11.6366 4.83877 11.2902 5.18514L5.22323 11.2521C4.87686 11.5985 4.87725 12.1575 5.22409 12.5044C5.57093 12.8512 6.12996 12.8516 6.47633 12.5052L12.5433 6.43824C12.8897 6.09188 12.887 5.5306 12.5424 5.186Z" fill="#D7D7D7"/>
</g>
<defs>
<clipPath id="clip0_19_468">
<rect width="25" height="16.9388" fill="white" transform="translate(12) rotate(45)"/>
</clipPath>
</defs>
</svg>
